<svg xmlns="http://www.w3.org/2000/svg" viewBox="0 0 64 64" fill="none">
  <defs>
    <linearGradient id="bg" x1="9" y1="8" x2="57" y2="58" gradientUnits="userSpaceOnUse">
      <stop stop-color="#7C6AF6"/>
      <stop offset="0.52" stop-color="#8F7CFF"/>
      <stop offset="1" stop-color="#4AB8FF"/>
    </linearGradient>
    <radialGradient id="glow" cx="0" cy="0" r="1" gradientUnits="userSpaceOnUse" gradientTransform="translate(48 15) rotate(133) scale(40)">
      <stop stop-color="#FFFFFF" stop-opacity="0.24"/>
      <stop offset="1" stop-color="#FFFFFF" stop-opacity="0"/>
    </radialGradient>
    <linearGradient id="brain-fill" x1="18" y1="16" x2="46" y2="48" gradientUnits="userSpaceOnUse">
      <stop stop-color="#FFFFFF" stop-opacity="0.18"/>
      <stop offset="1" stop-color="#8EE0FF" stop-opacity="0.08"/>
    </linearGradient>
  </defs>

  <rect x="3" y="3" width="58" height="58" rx="18" fill="url(#bg)"/>
  <rect x="3.5" y="3.5" width="57" height="57" rx="17.5" stroke="#FFFFFF" stroke-opacity="0.18"/>
  <rect x="3" y="3" width="58" height="58" rx="18" fill="url(#glow)" opacity="0.95"/>

  <g transform="translate(0 0.5)">
    <path
      d="M32 14.2c-3.6 0-6.6 1.7-8.2 4.4-3 .3-5.6 2.2-7 5.1-1.9 1.8-3 4.3-3 7.1 0 2.9 1.2 5.6 3.3 7.5 1.1 4 4.4 6.9 8.4 7.9 1.5 2.2 3.7 3.4 6.5 3.4s5-1.2 6.5-3.4c4-1 7.3-3.9 8.4-7.9 2.1-1.9 3.3-4.6 3.3-7.5 0-2.8-1.1-5.3-3-7.1-1.4-2.9-4-4.8-7-5.1-1.6-2.7-4.6-4.4-8.2-4.4Z"
      fill="url(#brain-fill)"
      stroke="#F8ECFF"
      stroke-width="2.7"
      stroke-linecap="round"
      stroke-linejoin="round"
    />

    <path d="M32 19.4v23.1" stroke="#E7D9FF" stroke-width="2.2" stroke-linecap="round"/>
    <path d="M28.7 20.8c-2.8 1.2-4.3 3.6-4.3 6.4 0 2.7 1.5 5 4.3 6.2" stroke="#E7D9FF" stroke-width="2.15" stroke-linecap="round" stroke-linejoin="round"/>
    <path d="M35.3 20.8c2.8 1.2 4.3 3.6 4.3 6.4 0 2.7-1.5 5-4.3 6.2" stroke="#E7D9FF" stroke-width="2.15" stroke-linecap="round" stroke-linejoin="round"/>
    <path d="M23.8 25.4c2.4.4 4.2 1.8 5 3.8" stroke="#E7D9FF" stroke-width="2" stroke-linecap="round"/>
    <path d="M40.2 25.4c-2.4.4-4.2 1.8-5 3.8" stroke="#E7D9FF" stroke-width="2" stroke-linecap="round"/>
    <path d="M24.1 36c2.2.5 3.9 1.9 4.7 4" stroke="#E7D9FF" stroke-width="2" stroke-linecap="round"/>
    <path d="M39.9 36c-2.2.5-3.9 1.9-4.7 4" stroke="#E7D9FF" stroke-width="2" stroke-linecap="round"/>
    <path d="M27 18.5c-.9.2-1.8.6-2.6 1.1" stroke="#8EE0FF" stroke-width="1.8" stroke-linecap="round"/>
    <path d="M37 18.5c.9.2 1.8.6 2.6 1.1" stroke="#8EE0FF" stroke-width="1.8" stroke-linecap="round"/>
    <path d="M29.5 44.4c1.6.7 3.4.7 5 0" stroke="#8EE0FF" stroke-width="1.8" stroke-linecap="round"/>
  </g>
</svg>
